<svg width="91" height="90" viewBox="0 0 91 90" fill="none" xmlns="http://www.w3.org/2000/svg">
<g clip-path="url(#clip0_201_88)">
<path d="M104.624 143.273C126.388 143.273 144.03 125.63 144.03 103.867C144.03 82.1041 126.388 64.4615 104.624 64.4615C82.8614 64.4615 65.2189 82.1041 65.2189 103.867C65.2189 125.63 82.8614 143.273 104.624 143.273Z" fill="#01BCD3"/>
<path d="M28.8682 42.2083C36.654 42.2083 42.9657 35.8967 42.9657 28.1109C42.9657 20.3251 36.654 14.0134 28.8682 14.0134C21.0824 14.0134 14.7708 20.3251 14.7708 28.1109C14.7708 35.8967 21.0824 42.2083 28.8682 42.2083Z" fill="#01BCD3"/>
<path d="M42.7975 5.60535C19.5913 5.60535 0.757324 24.4393 0.757324 47.6455C0.757324 70.8516 19.5913 89.6856 42.7975 89.6856C66.0036 89.6856 84.8376 70.8516 84.8376 47.6455C84.8376 24.4393 66.0036 5.60535 42.7975 5.60535ZM42.7975 84.0803C22.7023 84.0803 6.36268 67.7407 6.36268 47.6455C6.36268 27.5503 22.7023 11.2107 42.7975 11.2107C62.8926 11.2107 79.2322 27.5503 79.2322 47.6455C79.2322 67.7407 62.8926 84.0803 42.7975 84.0803Z" fill="black"/>
<path d="M51.2055 39.2374V36.4348C51.1774 34.9774 50.673 28.0267 42.7974 28.0267C41.3961 28.0548 34.3894 28.5312 34.3894 36.4348C34.3894 40.0502 38.0329 42.1242 44.0586 45.1511C50.0283 48.1219 56.8108 51.5132 56.8108 58.8562C56.8108 64.6577 54.2884 68.2451 51.2055 70.2911V78.4749H45.6001V72.5893C44.5911 72.7827 43.6102 72.8695 42.7974 72.8695C41.9847 72.8695 41.0037 72.7855 39.9948 72.5893V78.4749H34.3894V70.2911C31.3065 68.2451 28.7841 64.6577 28.7841 58.8562V56.0535H34.3894V58.8562C34.3894 66.7597 41.3961 67.2362 42.8255 67.2642C44.1988 67.2362 51.2055 66.7597 51.2055 58.8562C51.2055 55.2407 47.562 53.1667 41.5362 50.1398C35.5665 47.169 28.7841 43.7778 28.7841 36.4348C28.7841 30.6332 31.3065 27.0458 34.3894 24.9999V16.816H39.9948V22.7017C41.0037 22.5055 41.9847 22.4214 42.7974 22.4214C43.8064 22.4214 44.7313 22.5055 45.6001 22.6736V16.816H51.2055V24.8877C55.4936 27.9146 56.8108 33.1556 56.8108 36.4348V39.2374H51.2055Z" fill="black"/>
</g>
<defs>
<clipPath id="clip0_201_88">
<rect width="89.6856" height="89.6856" fill="white" transform="translate(0.757324)"/>
</clipPath>
</defs>
</svg>
